<svg width="115" height="31" viewBox="0 0 115 31" fill="none" xmlns="http://www.w3.org/2000/svg">
<path d="M107.621 2.27913e-06C109.129 2.27913e-06 110.751 0.101589 111.886 1.09537C111.95 1.15123 112.012 1.20913 112.072 1.26919C112.665 1.81866 113.132 2.51607 113.471 3.36142C113.852 4.20676 114.043 5.13664 114.043 6.15105V23.4594C114.043 24.5584 113.852 25.5305 113.471 26.3759C113.132 27.179 112.665 27.8764 112.072 28.4681C111.478 29.0176 110.779 29.4403 109.974 29.7361C109.211 30.032 108.427 30.1799 107.621 30.1799H52.9578L70.8949 8.7059e-07L107.621 2.27913e-06ZM104.824 23.4594C105.459 23.4594 106.01 23.2058 106.477 22.6986C106.985 22.1492 107.24 21.4518 107.24 20.6064V9.00408C107.24 8.15874 107.028 7.48246 106.604 6.97526C106.222 6.42578 105.65 6.15105 104.887 6.15105H77.6432L67.7619 23.4594H104.824Z" fill="white"/>
<path d="M61.6526 0H69.7555L51.5754 30.1799L41.3032 30.1799L34.5171 16.3631L25.1612 30.1799H16.2288L0 0H8.1029L22.0118 23.4866L30.4337 9.1157L25.1381 0H33.241L47.0862 23.4866L61.6526 0Z" fill="white"/>
</svg>
